<?xml version="1.0" encoding="UTF-8"?>
<svg width="16px" height="17px" viewBox="0 0 16 17" version="1.1" xmlns="http://www.w3.org/2000/svg" xmlns:xlink="http://www.w3.org/1999/xlink">
    <title>address</title>
    <g id="easy2mine10/8" stroke="none" stroke-width="1" fill="none" fill-rule="evenodd">
        <g id="contact1009" transform="translate(-185.000000, -1096.000000)">
            <g id="address" transform="translate(185.000000, 1096.000000)">
                <rect id="矩形" x="0" y="0" width="16" height="16"></rect>
                <g id="编组" transform="translate(0.000000, 0.533333)" fill="#06C1A2" fill-rule="nonzero">
                    <path d="M15.8762458,13.2241397 L14.9823911,9.29028492 C14.7922682,8.45336872 13.9371173,7.84599441 12.9492291,7.84599441 L11.4826816,7.84599441 C12.0509944,6.64259777 12.3658101,5.46226257 12.3658101,4.42583799 C12.3658101,1.98220938 10.3848577,0.00125698324 7.94122905,0.00125698324 C5.49760044,0.00125698324 3.51664804,1.98220938 3.51664804,4.42583799 C3.51664804,5.37922346 3.77032402,6.59665363 4.29975419,7.84617318 L2.97246927,7.84617318 C1.98458101,7.84617318 1.12943017,8.45399441 0.939307263,9.29046369 L0.045452514,13.2243184 C-0.0638819158,13.7064507 0.0564144382,14.2120321 0.371173184,14.593257 C0.756871508,15.0776369 1.39517318,15.3667989 2.07843575,15.3667989 L13.8430838,15.3667989 C14.5265251,15.3667989 15.1648268,15.0776369 15.5503464,14.593257 C15.8652108,14.2120142 15.9855757,13.7063561 15.8762458,13.2241397 Z M7.94140782,1.16746927 C9.73827524,1.17131379 11.1929289,2.62896646 11.1930726,4.42583799 C11.1930726,6.25770391 9.93729609,8.77488827 7.99378771,10.8386201 C7.94538788,10.8922939 7.8631558,10.8979473 7.80786592,10.8514022 C5.76067039,8.99665363 4.68938547,6.21497765 4.68938547,4.42583799 C4.68957884,2.62884754 6.14442116,1.17116606 7.94140782,1.16746927 Z M14.6339665,13.8602067 C14.4711955,14.0645419 14.1681788,14.1915587 13.8431732,14.1915587 L2.07870391,14.1915587 C1.75369832,14.1915587 1.45068156,14.0645419 1.28791061,13.8602067 C1.19719196,13.7578754 1.16046713,13.61854 1.18896089,13.4847877 L2.08281564,9.55102235 C2.15039106,9.25372626 2.54109497,9.02087709 2.97255866,9.02087709 L4.87861453,9.02087709 C5.44426388,10.029989 6.16768117,10.9421291 7.02145251,11.7227318 C7.25985865,11.9378555 7.56988021,12.0564082 7.89099441,12.0552458 C8.25257891,12.0561566 8.59846946,11.9076174 8.8467933,11.6447877 C9.60456525,10.8429483 10.2756863,9.96345021 10.8490279,9.02087709 L12.9489609,9.02087709 C13.3803352,9.02087709 13.7713073,9.25372626 13.8387039,9.55093296 L14.7325587,13.4847877 C14.7610948,13.6184964 14.7244745,13.7578131 14.6338771,13.8602067 L14.6339665,13.8602067 Z M10.0882682,4.42583799 C10.085949,3.24064841 9.12368419,2.28152945 7.93849337,2.28308935 C6.75330256,2.28465305 5.79356888,3.24630476 5.79437281,4.43149633 C5.79517776,5.6166879 6.75621598,6.5770359 7.94140782,6.57698883 C9.12769796,6.57442602 10.0880738,5.61213088 10.0882682,4.42583799 L10.0882682,4.42583799 Z M6.96710615,4.42583799 C6.96814236,3.8879916 7.40480986,3.45272373 7.94265681,3.45341339 C8.48050375,3.45410469 8.91605223,3.8904923 8.91570769,4.42833958 C8.91536275,4.96618685 8.47925521,5.40201676 7.94140782,5.40201676 C7.40303282,5.40093232 6.96715435,4.96421408 6.96710615,4.42583799 L6.96710615,4.42583799 Z" id="形状"></path>
                </g>
            </g>
        </g>
    </g>
</svg>