<?xml version="1.0" encoding="UTF-8"?>
<svg width="16px" height="16px" viewBox="0 0 16 16" version="1.1" xmlns="http://www.w3.org/2000/svg" xmlns:xlink="http://www.w3.org/1999/xlink">
    <title>contact</title>
    <g id="easy2mine10/8" stroke="none" stroke-width="1" fill="none" fill-rule="evenodd">
        <g id="contact1009" transform="translate(-206.000000, -1096.000000)">
            <g id="contact" transform="translate(206.000000, 1096.000000)">
                <rect id="矩形" x="0" y="0" width="16" height="16"></rect>
                <g fill="#06C1A2" fill-rule="nonzero" id="形状">
                    <path d="M8.00393678,9.60991379 C5.59271839,9.60991379 3.63115517,7.45717816 3.63115517,4.8111092 C3.63115517,2.16504023 5.59271839,0.0122126437 8.00393678,0.0122126437 C10.4151552,0.0122126437 12.3767184,2.16494828 12.3767184,4.8111092 C12.3767184,7.45727011 10.4150632,9.60991379 8.00393678,9.60991379 L8.00393678,9.60991379 Z M8.00393678,1.14582184 C6.21635057,1.14582184 4.76200575,2.79005172 4.76200575,4.8111092 C4.76200575,6.83216667 6.21635057,8.4763046 8.00393678,8.4763046 C9.79152299,8.4763046 11.2458678,6.83216667 11.2458678,4.8111092 C11.2458678,2.79005172 9.79152299,1.14582184 8.00393678,1.14582184 Z M8.02278736,15.9202586 C3.72439655,15.9202586 0.0122126437,15.9202586 0.0122126437,13.8420977 C0.0122126437,11.889546 3.75547701,10.1768103 8.02278736,10.1768103 C10.0299598,10.1768103 11.9584195,10.5284425 13.4524885,11.1669713 C15.0438448,11.8466954 15.9202586,12.7570402 15.9202586,13.7286264 C15.9202586,15.7588793 12.497454,15.9202586 8.02278736,15.9202586 Z M8.02278736,11.3103276 C3.82223563,11.3103276 1.14315517,12.9726724 1.14315517,13.8420057 C1.14315517,14.1576839 1.76136207,14.4283966 2.83924713,14.5845345 C4.12871839,14.771477 5.94968391,14.7868333 8.02287931,14.7868333 C9.89239655,14.7868333 11.8058678,14.7557529 13.1365345,14.5301897 C14.1870172,14.3520747 14.789408,14.0600287 14.789408,13.7288103 C14.7892241,12.8760287 12.2203046,11.3103276 8.02278736,11.3103276 Z"></path>
                </g>
            </g>
        </g>
    </g>
</svg>