<?xml version="1.0" encoding="UTF-8"?>
<svg width="16px" height="16px" viewBox="0 0 16 16" version="1.1" xmlns="http://www.w3.org/2000/svg" xmlns:xlink="http://www.w3.org/1999/xlink">
    <title>email</title>
    <g id="easy2mine10/8" stroke="none" stroke-width="1" fill="none" fill-rule="evenodd">
        <g id="contact1009" transform="translate(-225.000000, -1096.000000)">
            <g id="email" transform="translate(225.000000, 1096.000000)">
                <rect id="矩形" x="0" y="0" width="16" height="16"></rect>
                <g id="编组" transform="translate(0.000000, 2.400000)" fill="#06C1A2" fill-rule="nonzero">
                    <path d="M14.7150714,0.00346428571 L1.29214286,0.00346428571 C0.585714286,0.00346428571 0.0130178571,0.576142857 0.0130178571,1.28260714 L0.0130178571,9.56003571 C0.0130178571,10.2664821 0.585696429,10.8391786 1.29214286,10.8391786 L14.7150893,10.8391786 C15.4215357,10.8391786 15.9942321,10.2665 15.9942321,9.56003571 L15.9942321,1.28260714 C15.9942321,0.576142857 15.4215536,0.00346428571 14.7150893,0.00346428571 L14.7150714,0.00346428571 Z M14.9424464,1.79371429 L14.9424464,9.0565 C14.9424464,9.05719643 14.9423929,9.057875 14.9423929,9.05857143 L11.0835714,5.59532143 L14.9424464,1.79371429 L14.9424464,1.79371429 Z M5.716125,6.31455357 C6.98391071,7.22128571 9.133625,7.29010714 10.3251429,6.32792857 L14.1798214,9.78741071 L1.84653571,9.78741071 L5.716125,6.31455357 L5.716125,6.31455357 Z M14.1341964,1.05523214 L10.2352679,4.8955 C8.84623214,6.32719643 7.03108929,6.24192857 5.71908929,4.86644643 L1.94575,1.05523214 L14.1341964,1.05523214 Z M1.06475,1.78616071 C1.06475,1.75003571 1.06748214,1.71455357 1.07253571,1.67985714 L4.94560714,5.59283929 L1.06525,9.07539286 C1.06507143,9.06908929 1.06475,9.06282143 1.06475,9.0565 L1.06475,1.78616071 L1.06475,1.78616071 Z" id="形状"></path>
                </g>
            </g>
        </g>
    </g>
</svg>