<?xml version="1.0" encoding="UTF-8"?>
<svg width="100px" height="91px" viewBox="0 0 100 91" version="1.1" xmlns="http://www.w3.org/2000/svg" xmlns:xlink="http://www.w3.org/1999/xlink">
    <title>miner </title>
    <defs>
        <polygon id="path-1" points="1.14249037e-05 0.055296534 88.9948588 0.055296534 88.9948588 41.2439024 1.14249037e-05 41.2439024"></polygon>
    </defs>
    <g id="easy2mine10/8" stroke="none" stroke-width="1" fill="none" fill-rule="evenodd">
        <g id="Company1009" transform="translate(-260.000000, -780.000000)">
            <g id="编组-13" transform="translate(130.000000, 760.000000)">
                <g id="1" transform="translate(0.000000, 20.000000)">
                    <g id="编组-14" transform="translate(73.000000, 0.000000)">
                        <g id="miner-" transform="translate(57.000000, 0.000000)">
                            <path d="M3.92696081,12.8330285 C6.73031554,5.93800593 15.0720052,2.90009996 22.5248264,3.00250128 C29.9776475,3.10490261 37.2253451,5.5625344 44.6781662,6.00627348 C51.0711825,6.381745 57.498386,5.32359798 63.8914023,5.73320328 C76.9167456,6.55241388 89.3609057,13.959443 96.300918,25.0187861 C98.6598385,28.7735014 100.471763,33.1767584 99.8905796,37.5800153 C98.9675237,44.7822418 92.1984477,49.7999068 85.3268098,52.189271 C78.4893593,54.5786353 71.0365382,55.1930432 64.4383984,58.1968154 C58.3872546,60.9275174 53.3617284,65.5014433 48.6780748,70.2119042 C43.9944211,74.9223651 39.515891,79.9400301 34.1484923,83.8312804 C28.7469064,87.7225308 22.2513283,90.5215003 15.6190013,90.0436275 C8.98667423,89.5998884 2.35434718,85.3331665 0.542422776,78.9501506 C-1.09856536,73.2156764 1.26035509,67.1398645 3.92696081,61.8149956 C6.62775378,56.4901267 9.77298105,51.0969902 9.90973006,45.1235796 C10.0464791,39.5256405 7.44824785,34.3031729 5.43119993,29.1148391 C3.41415202,23.8923716 1.84153838,17.9872285 3.92696081,12.8330285 Z" id="Path" fill="#18C5A8" opacity="0.05"></path>
                            <g id="编组" transform="translate(6.000000, 0.000000)">
                                <path d="M43.8889961,8.30529949 C36.1726162,8.30529949 29.8950886,14.5829413 29.8950886,22.2992071 C29.8950886,30.015587 36.1726162,36.2932289 43.8889961,36.2932289 C51.6053761,36.2932289 57.8829037,30.015587 57.8829037,22.2992071 C57.8829037,14.5829413 51.6053761,8.30529949 43.8889961,8.30529949 M43.8889961,39.1276332 C34.6098036,39.1276332 27.0606842,31.5783996 27.0606842,22.2992071 C27.0606842,13.0200145 34.6098036,5.47089512 43.8889961,5.47089512 C53.1681887,5.47089512 60.7173081,13.0200145 60.7173081,22.2992071 C60.7173081,31.5783996 53.1681887,39.1276332 43.8889961,39.1276332" id="Fill-1" fill="#06C1A2"></path>
                                <path d="M46.4568118,23.4904932 L42.8567104,23.4585035 L41.8630865,28.8323212 L45.4631879,28.8644252 L46.4568118,23.4904932 Z M47.4393535,16.5787692 L44.1340146,16.5494072 L43.1863189,21.6757615 L46.4914293,21.7051235 L47.4393535,16.5787692 Z M37.9333766,30.5830734 L38.2629851,28.8003315 L39.5025872,28.8114136 L41.7735153,16.5283854 L40.5339132,16.5173032 L40.8635217,14.7345612 L47.9457053,14.7976267 C48.6732431,14.8040246 49.19022,14.9660298 49.4964074,15.2824996 C49.8024806,15.5994264 49.9065615,16.0220336 49.8088786,16.5504354 L49.0350698,20.7356062 C48.955781,21.164954 48.7697836,21.5312365 48.4771918,21.8341107 C48.1844858,22.1380131 47.7098953,22.360913 47.0529633,22.5037243 L47.0345692,22.6027782 C47.763935,22.7085728 48.2298426,22.9567217 48.4341199,23.3468822 C48.6375974,23.7374996 48.6951789,24.1717602 48.6066359,24.6508064 L47.8146616,28.9346883 C47.7169787,29.4629759 47.4570621,29.8824983 47.0355974,30.192913 C46.6129902,30.5034418 46.0385461,30.6551646 45.310437,30.6486524 L37.9333766,30.5830734 Z" id="Fill-3" fill="#06C1A2"></path>
                                <path d="M43.8889961,44.5984484 C33.7788703,44.5984484 24.9144018,37.7785806 22.3319166,28.0140582 L25.0724082,27.2890338 C27.3260847,35.8117834 35.0639435,41.764044 43.8889961,41.764044 C52.7139345,41.764044 60.4514506,35.8117834 62.7052413,27.2890338 L65.4456187,28.0140582 C62.8631335,37.7785806 53.9987792,44.5984484 43.8889961,44.5984484" id="Fill-5" fill="#06C1A2"></path>
                                <path d="M62.7052299,17.3093804 C60.4514392,8.78663068 52.7139231,2.83448434 43.8889847,2.83448434 C35.0640463,2.83448434 27.3260733,8.78663068 25.0723968,17.3093804 L22.3320194,16.584356 C24.9145046,6.8198335 33.7788589,7.99743261e-05 43.8889847,7.99743261e-05 C53.9987678,7.99743261e-05 62.8631221,6.8198335 65.4456073,16.584356 L62.7052299,17.3093804 Z" id="Fill-7" fill="#06C1A2"></path>
                                <path d="M23.042397,21.8542985 C22.7971044,21.8542985 22.597397,22.0540058 22.597397,22.2992985 C22.597397,22.5448196 22.7971044,22.744527 23.042397,22.744527 C23.2880325,22.744527 23.4876255,22.5448196 23.4876255,22.2992985 C23.4876255,22.0540058 23.2880325,21.8542985 23.042397,21.8542985 M23.042397,25.5789313 C21.2341775,25.5789313 19.7631069,24.1077465 19.7631069,22.2992985 C19.7631069,20.4910789 21.2341775,19.0198941 23.042397,19.0198941 C24.8509593,19.0198941 26.3220299,20.4910789 26.3220299,22.2992985 C26.3220299,24.1077465 24.8509593,25.5789313 23.042397,25.5789313" id="Fill-9" fill="#06C1A2"></path>
                                <path d="M64.7352068,21.8542985 C64.4895714,21.8542985 64.2899783,22.0540058 64.2899783,22.2992985 C64.2899783,22.5448196 64.4895714,22.744527 64.7352068,22.744527 C64.9808422,22.744527 65.1804353,22.5448196 65.1804353,22.2992985 C65.1804353,22.0540058 64.9808422,21.8542985 64.7352068,21.8542985 M64.7352068,25.5789313 C62.9266445,25.5789313 61.4555739,24.1077465 61.4555739,22.2992985 C61.4555739,20.4910789 62.9266445,19.0198941 64.7352068,19.0198941 C66.5437691,19.0198941 68.0148397,20.4910789 68.0148397,22.2992985 C68.0148397,24.1077465 66.5437691,25.5789313 64.7352068,25.5789313" id="Fill-11" fill="#06C1A2"></path>
                                <path d="M10.1723687,44.4550773 C9.42358049,44.4550773 8.81634685,43.8479579 8.81634685,43.0991697 L8.81634685,35.4166074 C8.81634685,34.667705 9.42358049,34.0605856 10.1723687,34.0605856 C10.9211569,34.0605856 11.5282763,34.667705 11.5282763,35.4166074 L11.5282763,43.0991697 C11.5282763,43.8479579 10.9211569,44.4550773 10.1723687,44.4550773" id="Fill-13" fill="#06C1A2"></path>
                                <path d="M10.1723687,31.1570035 C9.42358049,31.1570035 8.81634685,30.5498841 8.81634685,29.8009816 L8.81634685,25.9086312 C8.81634685,23.3826992 10.8715728,21.3275875 13.3973905,21.3275875 L15.9990696,21.3275875 C16.7478578,21.3275875 17.3550914,21.9347069 17.3550914,22.6834951 C17.3550914,23.4323976 16.7478578,24.0395169 15.9990696,24.0395169 L13.3973905,24.0395169 C12.3668642,24.0395169 11.5282763,24.8781049 11.5282763,25.9086312 L11.5282763,29.8009816 C11.5282763,30.5498841 10.9211569,31.1570035 10.1723687,31.1570035" id="Fill-15" fill="#06C1A2"></path>
                                <path d="M77.6052466,44.4550773 C76.8564584,44.4550773 76.249339,43.8479579 76.249339,43.0991697 L76.249339,35.4166074 C76.249339,34.667705 76.8564584,34.0605856 77.6052466,34.0605856 C78.354149,34.0605856 78.9612684,34.667705 78.9612684,35.4166074 L78.9612684,43.0991697 C78.9612684,43.8479579 78.354149,44.4550773 77.6052466,44.4550773" id="Fill-17" fill="#06C1A2"></path>
                                <path d="M77.6052466,31.1570035 C76.8564584,31.1570035 76.249339,30.5498841 76.249339,29.8009816 L76.249339,25.9086312 C76.249339,24.8781049 75.4110938,24.0395169 74.3805675,24.0395169 L71.7788884,24.0395169 C71.0301003,24.0395169 70.4228666,23.4323976 70.4228666,22.6834951 C70.4228666,21.9347069 71.0301003,21.3275875 71.7788884,21.3275875 L74.3805675,21.3275875 C76.9063852,21.3275875 78.9612684,23.3826992 78.9612684,25.9086312 L78.9612684,29.8009816 C78.9612684,30.5498841 78.354149,31.1570035 77.6052466,31.1570035" id="Fill-19" fill="#06C1A2"></path>
                                <g transform="translate(0.000000, 48.094275)">
                                    <mask id="mask-2" fill="white">
                                        <use xlink:href="#path-1"></use>
                                    </mask>
                                    <g id="Clip-22"></g>
                                    <path d="M54.8257252,38.531973 L83.0066212,38.531973 L86.2829408,35.3784711 L86.2829408,5.9210706 L83.0066212,2.76722593 L54.8257252,2.76722593 L51.814806,5.66549551 C51.5619729,5.90884596 51.2249383,6.04457381 50.8744222,6.04457381 L38.1202309,6.04457381 C37.7696006,6.04457381 37.4322232,5.90884596 37.1797329,5.66549551 L34.1691565,2.76722593 L5.98826046,2.76722593 L2.71194082,5.9210706 L2.71194082,35.3784711 L5.98826046,38.531973 L34.1691565,38.531973 L37.1797329,35.6340462 C37.4322232,35.390353 37.7696006,35.2546252 38.1202309,35.2546252 L50.8744222,35.2546252 C51.2249383,35.2546252 51.5619729,35.390353 51.814806,35.6333607 L54.8257252,38.531973 Z M83.5531886,41.2439024 L54.2791578,41.2439024 C53.9285275,41.2439024 53.5916071,41.1081746 53.3386597,40.8651669 L50.3277406,37.9665546 L38.6666841,37.9665546 L35.656222,40.8645956 C35.4032746,41.1081746 35.0662399,41.2439024 34.7157239,41.2439024 L5.44169307,41.2439024 C5.09117702,41.2439024 4.75414236,41.1081746 4.50130924,40.8651669 L0.415420924,36.9323723 C0.150020411,36.6761117 1.14249037e-05,36.3238819 1.14249037e-05,35.955086 L1.14249037e-05,5.34434146 C1.14249037e-05,4.97600257 0.150020411,4.62308729 0.415420924,4.3675122 L4.50130924,0.43437484 C4.75414236,0.19102439 5.09117702,0.055296534 5.44169307,0.055296534 L34.7157239,0.055296534 C35.0662399,0.055296534 35.4032746,0.19102439 35.656222,0.43437484 L38.6666841,3.33264442 L50.3277406,3.33264442 L53.3386597,0.43437484 C53.5916071,0.19102439 53.9285275,0.055296534 54.2791578,0.055296534 L83.5531886,0.055296534 C83.9037046,0.055296534 84.2407393,0.19102439 84.4936866,0.43437484 L88.5793465,4.3675122 C88.8448612,4.62308729 88.9948702,4.97600257 88.9948702,5.34434146 L88.9948702,35.955086 C88.9948702,36.3238819 88.8448612,36.6761117 88.5793465,36.9323723 L84.4936866,40.8651669 C84.2407393,41.1081746 83.9037046,41.2439024 83.5531886,41.2439024 L83.5531886,41.2439024 Z" id="Fill-21" fill="#3C68CD" mask="url(#mask-2)"></path>
                                </g>
                                <path d="M20.1920892,58.2159511 C14.3868671,58.2159511 9.66392619,62.9386635 9.66392619,68.7438856 C9.66392619,74.5491077 14.3868671,79.2717059 20.1920892,79.2717059 C25.9973113,79.2717059 30.7200237,74.5491077 30.7200237,68.7438856 C30.7200237,62.9386635 25.9973113,58.2159511 20.1920892,58.2159511 M20.1920892,82.0724068 C12.8429056,82.0724068 6.86391078,76.0930692 6.86391078,68.7438856 C6.86391078,61.3947021 12.8429056,55.4153644 20.1920892,55.4153644 C27.5412728,55.4153644 33.5200392,61.3947021 33.5200392,68.7438856 C33.5200392,76.0930692 27.5412728,82.0724068 20.1920892,82.0724068" id="Fill-23" fill="#3C68CD"></path>
                                <path d="M20.1920892,62.4208983 C16.7055513,62.4208983 13.8690905,65.2572449 13.8690905,68.743897 C13.8690905,72.2304349 16.7055513,75.0668958 20.1920892,75.0668958 C23.6783986,75.0668958 26.5147452,72.2304349 26.5147452,68.743897 C26.5147452,65.2572449 23.6783986,62.4208983 20.1920892,62.4208983 M20.1920892,77.535132 C15.3446168,77.535132 11.4008543,73.5910267 11.4008543,68.743897 C11.4008543,63.8966531 15.3446168,59.9526621 20.1920892,59.9526621 C25.0392189,59.9526621 28.9829814,63.8966531 28.9829814,68.743897 C28.9829814,73.5910267 25.0392189,77.535132 20.1920892,77.535132" id="Fill-25" fill="#3C68CD"></path>
                                <path d="M20.1920892,66.5516637 C18.9834487,66.5516637 17.9999929,67.5355764 17.9999929,68.7438742 C17.9999929,69.952172 18.9834487,70.9359705 20.1920892,70.9359705 C21.4007298,70.9359705 22.383957,69.952172 22.383957,68.7438742 C22.383957,67.5355764 21.4007298,66.5516637 20.1920892,66.5516637 M20.1920892,72.8931707 C17.9039095,72.8931707 16.0421072,71.0320539 16.0421072,68.7438742 C16.0421072,66.4556945 17.9039095,64.5945777 20.1920892,64.5945777 C22.4802689,64.5945777 24.3417285,66.4556945 24.3417285,68.7438742 C24.3417285,71.0320539 22.4802689,72.8931707 20.1920892,72.8931707" id="Fill-27" fill="#3C68CD"></path>
                                <path d="M32.4596367,82.1392882 C32.129914,82.1392882 31.7998485,82.0147567 31.5465584,81.7652368 L27.7723415,78.0435745 C27.2609628,77.5390507 27.2549076,76.7154294 27.7594313,76.2042792 C28.2632696,75.691758 29.0868909,75.6871881 29.5984981,76.1910263 L33.372715,79.9126887 C33.8840937,80.4172125 33.8901489,81.2408338 33.3855109,81.751984 C33.1313068,82.0101868 32.7953004,82.1392882 32.4596367,82.1392882" id="Fill-29" fill="#3C68CD"></path>
                                <path d="M11.6991128,61.6714246 C11.3693901,61.6714246 11.0394389,61.5470074 10.7861488,61.2973733 L7.01124634,57.5757109 C6.4997534,57.0711872 6.49381245,56.2482513 6.99822195,55.7364157 C7.50183171,55.2249227 8.32579576,55.2189818 8.8372887,55.723277 L12.6121911,59.4448252 C13.1236841,59.9493489 13.129625,60.7722847 12.6251013,61.2841204 C12.3707829,61.5423232 12.0351193,61.6714246 11.6991128,61.6714246" id="Fill-31" fill="#3C68CD"></path>
                                <path d="M28.5655725,61.5509262 C28.2358498,61.5509262 27.9061271,61.4263947 27.6524942,61.1768748 C27.1411155,60.6723511 27.1350603,59.849301 27.6393556,59.3374653 L31.3602182,55.5629056 C31.864742,55.0511842 32.687792,55.0459288 33.1995135,55.549767 C33.7110064,56.0542908 33.7169474,56.8772266 33.2127664,57.3890623 L29.4917895,61.163622 C29.2372426,61.4218248 28.9015789,61.5509262 28.5655725,61.5509262" id="Fill-33" fill="#3C68CD"></path>
                                <path d="M8.09736624,82.312067 C7.76764352,82.312067 7.43757805,82.1876498 7.18428793,81.9380157 C6.67290924,81.4334919 6.66685404,80.6098706 7.17137779,80.0987204 L10.8930402,76.3241607 C11.3968784,75.812325 12.2204997,75.8070696 12.7319927,76.3109078 C13.2434856,76.8154316 13.2494266,77.6390529 12.7449028,78.1502031 L9.02324044,81.9247628 C8.76903633,82.1829656 8.43302991,82.312067 8.09736624,82.312067" id="Fill-35" fill="#3C68CD"></path>
                                <path d="M68.5647317,58.2159511 C62.7598524,58.2159511 58.0369114,62.9386635 58.0369114,68.7438856 C58.0369114,74.5491077 62.7598524,79.2717059 68.5647317,79.2717059 C74.3699538,79.2717059 79.093009,74.5491077 79.093009,68.7438856 C79.093009,62.9386635 74.3699538,58.2159511 68.5647317,58.2159511 M68.5647317,82.0724068 C61.2155481,82.0724068 55.236896,76.0930692 55.236896,68.7438856 C55.236896,61.3947021 61.2155481,55.4153644 68.5647317,55.4153644 C75.9139153,55.4153644 81.8930244,61.3947021 81.8930244,68.7438856 C81.8930244,76.0930692 75.9139153,82.0724068 68.5647317,82.0724068" id="Fill-37" fill="#3C68CD"></path>
                                <path d="M68.5647317,62.4208983 C65.0785366,62.4208983 62.2420757,65.2572449 62.2420757,68.743897 C62.2420757,72.2304349 65.0785366,75.0668958 68.5647317,75.0668958 C72.0513838,75.0668958 74.8877304,72.2304349 74.8877304,68.743897 C74.8877304,65.2572449 72.0513838,62.4208983 68.5647317,62.4208983 M68.5647317,77.535132 C63.7176021,77.535132 59.7738395,73.5910267 59.7738395,68.743897 C59.7738395,63.8966531 63.7176021,59.9526621 68.5647317,59.9526621 C73.4122041,59.9526621 77.3559666,63.8966531 77.3559666,68.743897 C77.3559666,73.5910267 73.4122041,77.535132 68.5647317,77.535132" id="Fill-39" fill="#3C68CD"></path>
                                <path d="M68.5647317,66.5516637 C67.3560911,66.5516637 66.3728639,67.5355764 66.3728639,68.7438742 C66.3728639,69.952172 67.3560911,70.9359705 68.5647317,70.9359705 C69.7733723,70.9359705 70.7569422,69.952172 70.7569422,68.7438742 C70.7569422,67.5355764 69.7733723,66.5516637 68.5647317,66.5516637 M68.5647317,72.8931707 C66.276552,72.8931707 64.4150924,71.0320539 64.4150924,68.7438742 C64.4150924,66.4556945 66.276552,64.5945777 68.5647317,64.5945777 C70.8529114,64.5945777 72.7147137,66.4556945 72.7147137,68.7438742 C72.7147137,71.0320539 70.8529114,72.8931707 68.5647317,72.8931707" id="Fill-41" fill="#3C68CD"></path>
                                <path d="M80.8326105,82.1392882 C80.5028878,82.1392882 80.1728223,82.0147567 79.9195322,81.7652368 L76.1453153,78.0435745 C75.6339366,77.5390507 75.6278814,76.7154294 76.1324051,76.2042792 C76.6360149,75.691758 77.4598647,75.6871881 77.9714719,76.1910263 L81.7456888,79.9126887 C82.2570675,80.4172125 82.2631227,81.2408338 81.7584847,81.751984 C81.5042806,82.0101868 81.1682742,82.1392882 80.8326105,82.1392882" id="Fill-43" fill="#3C68CD"></path>
                                <path d="M60.0717553,61.6714246 C59.7420326,61.6714246 59.4120814,61.5470074 59.1587913,61.2973733 L55.3842316,57.5757109 C54.8727386,57.0711872 54.8667977,56.2475659 55.3712072,55.7364157 C55.8751597,55.2243515 56.6991237,55.2193245 57.2102739,55.723277 L60.9848336,59.4448252 C61.4963266,59.9493489 61.5022675,60.7729702 60.9977438,61.2841204 C60.7434254,61.5423232 60.407419,61.6714246 60.0717553,61.6714246" id="Fill-45" fill="#3C68CD"></path>
                                <path d="M76.9385463,61.5509262 C76.6088236,61.5509262 76.2791009,61.4263947 76.025468,61.1768748 C75.5140893,60.6723511 75.5080341,59.849301 76.0123294,59.3374653 L79.733192,55.5629056 C80.237373,55.0511842 81.0604231,55.0459288 81.5724873,55.549767 C82.0839802,56.0542908 82.0899212,56.8772266 81.5857402,57.3890623 L77.8647633,61.163622 C77.6102164,61.4218248 77.2745528,61.5509262 76.9385463,61.5509262" id="Fill-47" fill="#3C68CD"></path>
                                <path d="M56.4703401,82.312067 C56.1406173,82.312067 55.8105519,82.1876498 55.5572617,81.9380157 C55.0458831,81.4334919 55.0398279,80.6104418 55.5444659,80.0987204 L59.2656712,76.3241607 C59.7695095,75.8130105 60.5931308,75.8063841 61.1046237,76.3109078 C61.6161167,76.8154316 61.6220576,77.6383674 61.1175339,78.1502031 L57.3962142,81.9247628 C57.1420101,82.1829656 56.8063465,82.312067 56.4703401,82.312067" id="Fill-49" fill="#3C68CD"></path>
                                <path d="M48.2663909,64.2032519 L40.1306027,64.2032519 C39.3573652,64.2032519 38.730595,63.5762531 38.730595,62.8029014 C38.730595,62.0296639 39.3573652,61.402551 40.1306027,61.402551 L48.2663909,61.402551 C49.0397426,61.402551 49.6663986,62.0296639 49.6663986,62.8029014 C49.6663986,63.5762531 49.0397426,64.2032519 48.2663909,64.2032519" id="Fill-51" fill="#3C68CD"></path>
                                <path d="M48.2663909,70.1442018 L40.1306027,70.1442018 C39.3573652,70.1442018 38.730595,69.5172031 38.730595,68.7438513 C38.730595,67.9706139 39.3573652,67.3435009 40.1306027,67.3435009 L48.2663909,67.3435009 C49.0397426,67.3435009 49.6663986,67.9706139 49.6663986,68.7438513 C49.6663986,69.5172031 49.0397426,70.1442018 48.2663909,70.1442018" id="Fill-53" fill="#3C68CD"></path>
                                <path d="M48.2663909,76.0850946 L40.1306027,76.0850946 C39.3573652,76.0850946 38.730595,75.4580959 38.730595,74.6848584 C38.730595,73.9115067 39.3573652,73.284508 40.1306027,73.284508 L48.2663909,73.284508 C49.0397426,73.284508 49.6663986,73.9115067 49.6663986,74.6848584 C49.6663986,75.4580959 49.0397426,76.0850946 48.2663909,76.0850946" id="Fill-55" fill="#3C68CD"></path>
                            </g>
                        </g>
                    </g>
                </g>
            </g>
        </g>
    </g>
</svg>