<?xml version="1.0" encoding="UTF-8"?>
<svg width="16px" height="16px" viewBox="0 0 16 16" version="1.1" xmlns="http://www.w3.org/2000/svg" xmlns:xlink="http://www.w3.org/1999/xlink">
    <title>website</title>
    <g id="easy2mine10/8" stroke="none" stroke-width="1" fill="none" fill-rule="evenodd">
        <g id="contact1009" transform="translate(-257.000000, -1097.000000)">
            <g id="website" transform="translate(257.000000, 1097.000000)">
                <rect id="矩形" x="0" y="0" width="16" height="16"></rect>
                <g id="编组" fill="#06C1A2" fill-rule="nonzero">
                    <path d="M3.9126462,6.09649123 L1.44618056,6.09649123 C1.27234486,6.70505153 1.18448105,7.33493496 1.18513884,7.96783626 C1.18513884,8.61719664 1.27591374,9.24502924 1.44713085,9.83918129 L3.91357822,9.83918129 C3.81063596,9.24035088 3.75824196,8.61626462 3.75824196,7.96783626 C3.75824196,7.31940789 3.81063596,6.69532164 3.91357822,6.09649123 L3.9126462,6.09649123 Z M4.86421784,6.09649123 C4.74797457,6.71343825 4.69063824,7.34003802 4.69298246,7.96783626 C4.69298246,8.62094298 4.74912281,9.24502924 4.86421784,9.83918129 L7.5,9.83918129 L7.5,6.09649123 L4.86421784,6.09649123 Z M6.23497807,14.5278326 C5.23701554,13.4665253 4.51195392,12.1785673 4.12222222,10.7748538 L1.79053363,10.7748538 C2.6351053,12.6283962 4.26615067,14.0056839 6.23497807,14.5278326 L6.23497807,14.5278326 Z M7.5,14.4623355 L7.5,10.7748538 L5.09813596,10.7748538 C5.53790205,12.183973 6.33790205,13.410636 7.5,14.4632675 L7.5,14.4623355 Z M6.23497807,1.40877193 C4.26633743,1.93071622 2.63532626,3.30763302 1.79053363,5.16081871 L4.12222222,5.16081871 C4.51167806,3.75719719 5.23640892,2.46924739 6.23402778,1.40783991 L6.23497807,1.40877193 Z M7.5,1.47426901 C6.33790205,2.52408626 5.53883406,3.75076754 5.09813596,5.16081871 L7.5,5.16081871 L7.5,1.47240497 L7.5,1.47426901 Z M12.0230263,6.09649123 C12.1259686,6.69532164 12.1783626,7.31940789 12.1783626,7.96783626 C12.1783626,8.61626462 12.1259686,9.24035088 12.0230263,9.83918129 L14.4904057,9.83918129 C14.6607091,9.24502924 14.751462,8.61719664 14.751462,7.96783626 C14.751462,7.31847588 14.6607091,6.69064327 14.4894737,6.09649123 L12.0230263,6.09649123 L12.0230263,6.09649123 Z M11.0714547,6.09649123 L8.43567251,6.09649123 L8.43567251,9.83918129 L11.0714547,9.83918129 C11.1856177,9.24502924 11.2426901,8.62094298 11.2426901,7.96783626 C11.2426901,7.31472953 11.1865497,6.69064327 11.0714547,6.09649123 L11.0714547,6.09649123 Z M9.70069444,14.5278326 C11.6695218,14.0056839 13.3005672,12.6283962 14.1451389,10.7748538 L11.8134503,10.7748538 C11.4239945,12.1784753 10.6992636,13.4664251 9.70164474,14.5278326 L9.70069444,14.5278326 Z M8.43567251,14.4623538 C9.59777047,13.410636 10.3968385,12.183973 10.8375365,10.7748538 L8.43567251,10.7748538 L8.43567251,14.4632675 L8.43567251,14.4623538 Z M9.70069444,1.4087902 C10.6985239,2.46982662 11.4235773,3.7574439 11.8134503,5.16081871 L14.1460892,5.16081871 C13.3015175,3.30727634 11.6704721,1.92998864 9.70164474,1.40783991 L9.70069444,1.4087902 Z M8.43567251,1.47428728 L8.43567251,5.16081871 L10.8375365,5.16081871 C10.3977705,3.75169956 9.59777047,2.52503655 8.43567251,1.47240497 L8.43567251,1.47428728 Z M7.96783626,15.9210526 C3.57539614,15.9210526 0.014619883,12.3602764 0.014619883,7.96783626 C0.014619883,3.57539614 3.57539614,0.014619883 7.96783626,0.014619883 C12.3602764,0.014619883 15.9210526,3.57539614 15.9210526,7.96783626 C15.9210526,12.3602764 12.3602764,15.9210526 7.96783626,15.9210526 Z" id="形状"></path>
                </g>
            </g>
        </g>
    </g>
</svg>